<svg xmlns="http://www.w3.org/2000/svg" viewBox="0 0 256 256" role="img" aria-hidden="true">
  <defs>
    <linearGradient id="g" x1="0" y1="0" x2="1" y2="1"><stop offset="0" stop-color="#92400e"/><stop offset="0.62" stop-color="#f59e0b"/><stop offset="1" stop-color="#fde68a"/></linearGradient>
    <radialGradient id="shine" cx="35%" cy="25%" r="65%"><stop offset="0" stop-color="#ffffff" stop-opacity="0.32"/><stop offset="1" stop-color="#ffffff" stop-opacity="0"/></radialGradient>
    <filter id="shadow" x="-20%" y="-20%" width="140%" height="140%"><feDropShadow dx="0" dy="8" stdDeviation="6" flood-color="#000000" flood-opacity="0.35"/></filter>
  </defs>
  <rect width="256" height="256" rx="34" fill="url(#g)"/><rect width="256" height="256" rx="34" fill="url(#shine)"/><circle cx="219" cy="37" r="31" fill="#ffffff" opacity="0.10"/><circle cx="38" cy="218" r="44" fill="#000000" opacity="0.12"/>
  <g filter="url(#shadow)"><rect x="70" y="84" width="116" height="90" rx="18" fill="#fee2e2"/><path d="M82 94h92a14 14 0 0 1 0 60H82z" fill="#fef3c7"/><circle cx="102" cy="126" r="16" fill="#fde68a"/><circle cx="128" cy="132" r="16" fill="#fde68a"/><circle cx="154" cy="126" r="16" fill="#fde68a"/><g fill="#d97706"><circle cx="96" cy="122" r="2.5"/><circle cx="108" cy="132" r="2.5"/><circle cx="126" cy="128" r="2.5"/><circle cx="136" cy="138" r="2.5"/><circle cx="152" cy="122" r="2.5"/></g></g>
  <g opacity="0.22"><circle cx="198" cy="54" r="8" fill="#ffffff"/><rect x="54" y="188" width="14" height="14" rx="3" fill="#000000"/></g>
</svg>