<svg xmlns="http://www.w3.org/2000/svg" viewBox="0 0 256 256" role="img" aria-hidden="true">
  <defs>
    <linearGradient id="g" x1="0" y1="0" x2="1" y2="1"><stop offset="0" stop-color="#0f766e"/><stop offset="0.62" stop-color="#14b8a6"/><stop offset="1" stop-color="#ccfbf1"/></linearGradient>
    <radialGradient id="shine" cx="35%" cy="25%" r="65%"><stop offset="0" stop-color="#ffffff" stop-opacity="0.32"/><stop offset="1" stop-color="#ffffff" stop-opacity="0"/></radialGradient>
    <filter id="shadow" x="-20%" y="-20%" width="140%" height="140%"><feDropShadow dx="0" dy="8" stdDeviation="6" flood-color="#000000" flood-opacity="0.35"/></filter>
  </defs>
  <rect width="256" height="256" rx="34" fill="url(#g)"/><rect width="256" height="256" rx="34" fill="url(#shine)"/><circle cx="219" cy="37" r="31" fill="#ffffff" opacity="0.10"/><circle cx="38" cy="218" r="44" fill="#000000" opacity="0.12"/>
  <g filter="url(#shadow)"><rect x="86" y="88" width="84" height="84" rx="14" fill="#f8fafc"/><rect x="98" y="100" width="60" height="20" rx="8" fill="#ccfbf1"/><rect x="98" y="126" width="60" height="34" rx="10" fill="#99f6e4"/><circle cx="128" cy="142" r="5" fill="#0f766e"/><path d="M100 172v22M156 172v22" stroke="#134e4a" stroke-width="8" stroke-linecap="round"/><path d="M118 76h20l8 16h-36z" fill="#fef3c7"/></g>
  <g opacity="0.22"><circle cx="198" cy="54" r="8" fill="#ffffff"/><rect x="54" y="188" width="14" height="14" rx="3" fill="#000000"/></g>
</svg>