<svg xmlns="http://www.w3.org/2000/svg" viewBox="0 0 256 256" role="img" aria-hidden="true">
  <defs>
    <linearGradient id="g" x1="0" y1="0" x2="1" y2="1"><stop offset="0" stop-color="#4c1d95"/><stop offset="0.62" stop-color="#8b5cf6"/><stop offset="1" stop-color="#ede9fe"/></linearGradient>
    <radialGradient id="shine" cx="35%" cy="25%" r="65%"><stop offset="0" stop-color="#ffffff" stop-opacity="0.32"/><stop offset="1" stop-color="#ffffff" stop-opacity="0"/></radialGradient>
    <filter id="shadow" x="-20%" y="-20%" width="140%" height="140%"><feDropShadow dx="0" dy="8" stdDeviation="6" flood-color="#000000" flood-opacity="0.35"/></filter>
  </defs>
  <rect width="256" height="256" rx="34" fill="url(#g)"/><rect width="256" height="256" rx="34" fill="url(#shine)"/><circle cx="219" cy="37" r="31" fill="#ffffff" opacity="0.10"/><circle cx="38" cy="218" r="44" fill="#000000" opacity="0.12"/>
  <g filter="url(#shadow)"><path d="M84 72h88l-8 22 14 24v64H78v-64l14-24z" fill="#f8fafc"/><ellipse cx="128" cy="146" rx="34" ry="12" fill="#f59e0b"/><ellipse cx="128" cy="134" rx="30" ry="10" fill="#fcd34d"/><ellipse cx="128" cy="122" rx="26" ry="9" fill="#fde68a"/><rect x="146" y="110" width="14" height="20" rx="7" fill="#fb7185"/></g>
  <g opacity="0.22"><circle cx="198" cy="54" r="8" fill="#ffffff"/><rect x="54" y="188" width="14" height="14" rx="3" fill="#000000"/></g>
</svg>