<svg xmlns="http://www.w3.org/2000/svg" viewBox="0 0 256 256" role="img" aria-hidden="true">
  <defs>
    <linearGradient id="g" x1="0" y1="0" x2="1" y2="1"><stop offset="0" stop-color="#92400e"/><stop offset="0.62" stop-color="#f97316"/><stop offset="1" stop-color="#ffedd5"/></linearGradient>
    <radialGradient id="shine" cx="35%" cy="25%" r="65%"><stop offset="0" stop-color="#ffffff" stop-opacity="0.32"/><stop offset="1" stop-color="#ffffff" stop-opacity="0"/></radialGradient>
    <filter id="shadow" x="-20%" y="-20%" width="140%" height="140%"><feDropShadow dx="0" dy="8" stdDeviation="6" flood-color="#000000" flood-opacity="0.35"/></filter>
  </defs>
  <rect width="256" height="256" rx="34" fill="url(#g)"/><rect width="256" height="256" rx="34" fill="url(#shine)"/><circle cx="219" cy="37" r="31" fill="#ffffff" opacity="0.10"/><circle cx="38" cy="218" r="44" fill="#000000" opacity="0.12"/>
  <g filter="url(#shadow)"><rect x="76" y="82" width="104" height="94" rx="18" fill="#f8fafc"/><path d="M96 108c0 28 18 50 32 50s32-22 32-50" stroke="#fdba74" stroke-width="10" fill="none" stroke-linecap="round"/><path d="M98 118h60M96 136h64M104 154h48" stroke="#f97316" stroke-width="6" stroke-linecap="round"/><path d="M86 96h84" stroke="#e5e7eb" stroke-width="8" stroke-linecap="round"/></g>
  <g opacity="0.22"><circle cx="198" cy="54" r="8" fill="#ffffff"/><rect x="54" y="188" width="14" height="14" rx="3" fill="#000000"/></g>
</svg>