<svg xmlns="http://www.w3.org/2000/svg" viewBox="0 0 256 256" role="img" aria-hidden="true">
  <defs>
    <linearGradient id="g" x1="0" y1="0" x2="1" y2="1"><stop offset="0" stop-color="#78350f"/><stop offset="0.62" stop-color="#d97706"/><stop offset="1" stop-color="#fde68a"/></linearGradient>
    <radialGradient id="shine" cx="35%" cy="25%" r="65%"><stop offset="0" stop-color="#ffffff" stop-opacity="0.32"/><stop offset="1" stop-color="#ffffff" stop-opacity="0"/></radialGradient>
    <filter id="shadow" x="-20%" y="-20%" width="140%" height="140%"><feDropShadow dx="0" dy="8" stdDeviation="6" flood-color="#000000" flood-opacity="0.35"/></filter>
  </defs>
  <rect width="256" height="256" rx="34" fill="url(#g)"/><rect width="256" height="256" rx="34" fill="url(#shine)"/><circle cx="219" cy="37" r="31" fill="#ffffff" opacity="0.10"/><circle cx="38" cy="218" r="44" fill="#000000" opacity="0.12"/>
  <g filter="url(#shadow)"><path d="M84 72h88l-9 22 15 24v66H78v-66l15-24z" fill="#f8fafc"/><rect x="96" y="96" width="64" height="42" rx="12" fill="#fde68a"/><path d="M111 153l19-34" stroke="#94a3b8" stroke-width="6" stroke-linecap="round"/><path d="M128 118c12 7 22 18 27 31" stroke="#d97706" stroke-width="6" fill="none" stroke-linecap="round"/><path d="M105 112c10 4 19 11 25 20" stroke="#b45309" stroke-width="5" fill="none" stroke-linecap="round"/></g>
  <g opacity="0.22"><circle cx="198" cy="54" r="8" fill="#ffffff"/><rect x="54" y="188" width="14" height="14" rx="3" fill="#000000"/></g>
</svg>