<svg xmlns="http://www.w3.org/2000/svg" viewBox="0 0 256 256" role="img" aria-hidden="true">

  <defs>
    <linearGradient id="g" x1="0" y1="0" x2="1" y2="1"><stop offset="0" stop-color="#312e81"/><stop offset="0.62" stop-color="#7c3aed"/><stop offset="1" stop-color="#ddd6fe"/></linearGradient>
    <radialGradient id="shine" cx="35%" cy="25%" r="65%"><stop offset="0" stop-color="#ffffff" stop-opacity="0.32"/><stop offset="1" stop-color="#ffffff" stop-opacity="0"/></radialGradient>
    <filter id="shadow" x="-20%" y="-20%" width="140%" height="140%"><feDropShadow dx="0" dy="8" stdDeviation="6" flood-color="#000000" flood-opacity="0.35"/></filter>
  </defs>
  <rect width="256" height="256" rx="34" fill="url(#g)"/>
  <rect width="256" height="256" rx="34" fill="url(#shine)"/>
  <circle cx="219" cy="37" r="31" fill="#ffffff" opacity="0.10"/>
  <circle cx="38" cy="218" r="44" fill="#000000" opacity="0.12"/>

  <g filter="url(#shadow)">
<path d="M74 147V87c0-10 14-10 14 0v47h7V74c0-10 15-10 15 0v60h7V70c0-11 16-11 16 0v64h7V82c0-10 15-10 15 0v68c18-20 34-6 19 15l-36 50H96c-14-25-22-43-22-68z" fill="#dbeafe"/>
  </g>
  <g opacity="0.22">
    <circle cx="127" cy="183" r="4" fill="#ffffff"/>
    <rect x="66" y="101" width="8" height="8" rx="2" fill="#000000"/>
  </g>
</svg>
