<svg xmlns="http://www.w3.org/2000/svg" viewBox="0 0 256 256" role="img" aria-hidden="true">
  <defs>
    <linearGradient id="g" x1="0" y1="0" x2="1" y2="1"><stop offset="0" stop-color="#075985"/><stop offset="0.62" stop-color="#0ea5e9"/><stop offset="1" stop-color="#e0f2fe"/></linearGradient>
    <radialGradient id="shine" cx="35%" cy="25%" r="65%"><stop offset="0" stop-color="#ffffff" stop-opacity="0.32"/><stop offset="1" stop-color="#ffffff" stop-opacity="0"/></radialGradient>
    <filter id="shadow" x="-20%" y="-20%" width="140%" height="140%"><feDropShadow dx="0" dy="8" stdDeviation="6" flood-color="#000000" flood-opacity="0.35"/></filter>
  </defs>
  <rect width="256" height="256" rx="34" fill="url(#g)"/><rect width="256" height="256" rx="34" fill="url(#shine)"/><circle cx="219" cy="37" r="31" fill="#ffffff" opacity="0.10"/><circle cx="38" cy="218" r="44" fill="#000000" opacity="0.12"/>
  <g filter="url(#shadow)"><path d="M78 112c18-14 82-14 100 0v32c-18 14-82 14-100 0z" fill="#e0f2fe"/><path d="M62 124c8-12 18-20 30-24M194 124c-8-12-18-20-30-24" stroke="#bae6fd" stroke-width="8" fill="none" stroke-linecap="round"/><path d="M96 126h64M96 138h64" stroke="#38bdf8" stroke-width="6" stroke-linecap="round"/></g>
  <g opacity="0.22"><circle cx="198" cy="54" r="8" fill="#ffffff"/><rect x="54" y="188" width="14" height="14" rx="3" fill="#000000"/></g>
</svg>